<?xml version="1.0" standalone="no"?><!DOCTYPE svg PUBLIC "-//W3C//DTD SVG 1.1//EN" "http://www.w3.org/Graphics/SVG/1.1/DTD/svg11.dtd"><svg t="1688025111131" class="icon" viewBox="0 0 1024 1024" version="1.1" xmlns="http://www.w3.org/2000/svg" p-id="1560" xmlns:xlink="http://www.w3.org/1999/xlink" width="200" height="200"><path d="M849.92 198.776471a258.610196 258.610196 0 0 0-364.825098-13.854118L187.934118 460.398431a258.208627 258.208627 0 0 0 175.284706 447.347451 256 256 0 0 0 174.883137-68.668235l297.160784-275.476078a258.610196 258.610196 0 0 0 14.657255-364.825098zM518.425098 816.991373a226.083137 226.083137 0 0 1-154.403137 60.235294A228.09098 228.09098 0 0 1 208.414118 481.882353L321.254902 378.679216v1.003921l314.62902 327.880785zM815.585882 542.117647l-157.414902 145.970196-315.632941-329.286274 163.438432-151.391373A228.09098 228.09098 0 0 1 815.585882 542.117647z" fill="#030F09" p-id="1561"></path><path d="M661.182745 218.051765a101.596863 101.596863 0 0 0-73.888627 28.310588L501.960784 321.254902a15.058824 15.058824 0 0 0 0 20.078431 14.657255 14.657255 0 0 0 11.243922 5.019608 15.861961 15.861961 0 0 0 10.039216-3.614117l85.534117-75.093334a74.892549 74.892549 0 0 1 50.597647-20.078431 74.290196 74.290196 0 0 1 51.802353 36.542745 15.058824 15.058824 0 1 0 24.696471-17.468235 103.80549 103.80549 0 0 0-74.691765-48.589804z" fill="#030F09" p-id="1562"></path></svg>